# xmcd
#
# Track frame offsets: 
#        150
#        14069
#        28235
#        39190
#        49805
#        62915
#        75873
#        95291
#        114146
#        127403
#        136613
#        154649
#        172691
#        184538
#        196220
#        207038
#        219719
#        232076
#        242894
#        253673
#        270601
#
# Disc length: 3739 seconds
#
# Revision: 1
# Processed by: cddbd v1.5.2PL0 Copyright (c) Steve Scherf et al.
# Submitted via: ExactAudioCopy v1.0b3
#
DISCID=1a0e9915
DTITLE=Johnny Thunders and The Heartbreakers - L.A.M.F. [Special Edition
DTITLE=] [CD4: The Alternative Mixes)
DYEAR=2012
DGENRE=
TTITLE0=Born To Lose (mix 4 - Essex Studio 20th February)
TTITLE1=Born To Lose (mix 4 - Ramport 22nd March)
TTITLE2=Baby Talk (mix 7 - Ramport 5th June)
TTITLE3=Baby Talk (Advision 15th September)
TTITLE4=All By Myself (mix 2 - Olympic 16th May)
TTITLE5=All By Myself (Ramport Studios)
TTITLE6=It's Not Enough (mix 1 - Ramport 1st June)
TTITLE7=It's Not Enough (Ramport 27th June)
TTITLE8=Chinese Rocks (2nd Choice - Ramport 22nd March)
TTITLE9=Get Off The Phone (Olympic 16th May)
TTITLE10=Pirate Love (mix 2 - Ramport 7th June)
TTITLE11=Pirate Love (mix 6 - Ramport 2nd July)
TTITLE12=One Track Mind (mix 7 - Ramport 22nd June)
TTITLE13=One Track Mind (Adviion 10th September)
TTITLE14=I Love You (mix 2 - Ramport 11th June)
TTITLE15=Goin' Steady (mix 1 - Olympic 19th may)
TTITLE16=Goin' Steady (comp tape - Ramport 22nd July)
TTITLE17=Let Go (Ramport 10th June)
TTITLE18=Let Go (mix 2 and 1 edit - Ramport 2nd July)
TTITLE19=Can't Keep My Eyes On You (rough mix - Ramport 22nd April)
TTITLE20=Do You Love Me (comp tape - Ramport 22nd July)
EXTD=
EXTT0=
EXTT1=
EXTT2=
EXTT3=
EXTT4=
EXTT5=
EXTT6=
EXTT7=
EXTT8=
EXTT9=
EXTT10=
EXTT11=
EXTT12=
EXTT13=
EXTT14=
EXTT15=
EXTT16=
EXTT17=
EXTT18=
EXTT19=
EXTT20=
PLAYORDER=
